<svg width="793" height="367" viewBox="0 0 793 367" fill="none" xmlns="http://www.w3.org/2000/svg">
<line x1="0.500061" y1="3.05394e-05" x2="0.500045" y2="366" stroke="#625B58"/>
<line x1="72.5001" y1="3.05394e-05" x2="72.5" y2="366" stroke="#625B58"/>
<line x1="144.5" y1="3.05394e-05" x2="144.5" y2="366" stroke="#625B58"/>
<line x1="216.5" y1="3.05394e-05" x2="216.5" y2="366" stroke="#625B58"/>
<line x1="288.5" y1="3.05394e-05" x2="288.5" y2="366" stroke="#625B58"/>
<line x1="360.5" y1="3.05394e-05" x2="360.5" y2="366" stroke="#625B58"/>
<line x1="432.5" y1="3.05394e-05" x2="432.5" y2="366" stroke="#625B58"/>
<line x1="504.5" y1="3.05394e-05" x2="504.5" y2="366" stroke="#625B58"/>
<line x1="576.5" y1="3.05394e-05" x2="576.5" y2="366" stroke="#625B58"/>
<line x1="648.5" y1="3.05394e-05" x2="648.5" y2="366" stroke="#625B58"/>
<line x1="720.5" y1="3.05394e-05" x2="720.5" y2="366" stroke="#625B58"/>
<line x1="792.5" y1="3.05394e-05" x2="792.5" y2="366" stroke="#625B58"/>
<line x1="792" y1="1.00006" x2="-4.37113e-08" y2="0.999992" stroke="#625B58"/>
<line x1="792" y1="74.0001" x2="-4.37113e-08" y2="74" stroke="#625B58"/>
<line x1="792" y1="147" x2="-4.37113e-08" y2="147" stroke="#625B58"/>
<line x1="792" y1="220" x2="-4.37113e-08" y2="220" stroke="#625B58"/>
<line x1="792" y1="293" x2="-4.37113e-08" y2="293" stroke="#625B58"/>
<line x1="792" y1="366" x2="-3.05613e-05" y2="366" stroke="#625B58"/>
<rect x="144" y="151" width="516" height="140" rx="70" fill="#FFF8E7"/>
<circle cx="527.5" cy="163.5" r="47.5" fill="#211F1E" stroke="#FFF8E7" stroke-width="2"/>
<path d="M527.5 124C505.685 124 488 141.461 488 163H567C567 141.461 549.315 124 527.5 124Z" fill="#FFF8E7"/>
<circle cx="528" cy="163" r="16" fill="#211F1E" stroke="#FFF8E7" stroke-width="2"/>
<circle cx="386.5" cy="163.5" r="47.5" fill="#211F1E" stroke="#FFF8E7" stroke-width="2"/>
<path d="M386.5 124C364.685 124 347 141.461 347 163H426C426 141.461 408.315 124 386.5 124Z" fill="#FFF8E7"/>
<circle cx="387" cy="163" r="16" fill="#211F1E" stroke="#FFF8E7" stroke-width="2"/>
<rect x="443" y="166" width="28" height="63" rx="14" fill="#FF7043"/>
<rect x="448" y="209" width="19" height="14" rx="7" fill="#211F1E"/>
</svg>
