<svg width="1221" height="154" viewBox="0 0 1221 154" fill="none" xmlns="http://www.w3.org/2000/svg">
<path d="M119.612 5.54921L114.474 44.5786C112.7 44.0854 110.926 43.7463 109.152 43.5613C107.378 43.3763 105.605 43.2838 103.831 43.2838C99.3044 43.2838 94.9921 43.9004 90.894 45.1336C86.7958 46.3051 83.1564 48.124 79.9757 50.5903C76.8562 53.0566 74.3483 56.1395 72.4522 59.839C70.6171 63.5384 69.6996 67.8853 69.6996 72.8796C69.6996 76.0858 70.189 78.8604 71.1676 81.2034C72.2075 83.5464 73.6449 85.4886 75.4799 87.0301C77.3149 88.5715 79.4863 89.7122 81.9942 90.4521C84.502 91.192 87.2545 91.562 90.2517 91.562C92.5149 91.562 94.8698 91.3153 97.3165 90.8221C99.7632 90.3288 102.179 89.6814 104.565 88.8798C106.95 88.0783 109.275 87.1534 111.538 86.1052C113.801 85.057 115.881 83.978 117.777 82.8682L114.107 126.337C111.721 127.57 109.122 128.68 106.308 129.667C103.556 130.591 100.711 131.424 97.7752 132.164C94.8392 132.842 91.9032 133.366 88.9672 133.736C86.0312 134.106 83.2175 134.291 80.5262 134.291C72.758 134.291 65.5097 132.842 58.7814 129.944C52.053 127.046 46.2116 123.069 41.257 118.013C36.3025 112.957 32.3878 107.007 29.513 100.163C26.6993 93.2575 25.2925 85.8278 25.2925 77.8739C25.2925 67.3304 26.7911 57.4035 29.7882 48.0931C32.7854 38.7211 37.1894 30.5206 43.0003 23.4917C48.8111 16.4627 55.9983 10.9134 64.5616 6.84402C73.1862 2.7746 83.0952 0.739895 94.2887 0.739895C98.5092 0.739895 102.822 1.07901 107.226 1.75725C111.691 2.43549 115.819 3.69947 119.612 5.54921Z" fill="#FF7043"/>
<path d="M232.493 131.886L186.618 134.106L186.251 95.0764H165.148L163.864 135.586H122.76L126.246 5.54921L169.919 7.58392L167.167 73.9895H187.535L187.719 4.43937L229.557 5.54921L232.493 131.886Z" fill="#FF7043"/>
<path d="M355.1 127.632L309.591 133.551L304.086 112.649H283.167L278.58 133.551L231.787 128.927L268.304 5.73418L319.317 3.14455L355.1 127.632ZM300.783 84.348L293.81 52.1626L287.021 84.348H300.783Z" fill="#FF7043"/>
<path d="M403.113 5.36424L396.691 131.331L357.972 133.366L354.302 7.95387L403.113 5.36424Z" fill="#FF7043"/>
<path d="M522.692 88.7873C522.692 95.7547 522.6 102.66 522.417 109.504C522.295 116.287 522.081 123.131 521.775 130.036L468.927 129.112C470.762 118.198 472.352 107.316 473.698 96.4638C475.043 85.5503 475.716 74.5444 475.716 63.446C475.716 62.6444 475.685 61.3496 475.624 59.5615C475.563 57.7734 475.441 55.7696 475.257 53.5499C475.074 51.2685 474.799 48.9564 474.432 46.6134C474.126 44.2087 473.667 42.0198 473.055 40.0468C472.505 38.0737 471.801 36.4706 470.945 35.2375C470.15 33.9427 469.171 33.2953 468.009 33.2953C465.929 33.2953 464.155 33.9118 462.687 35.145C461.281 36.3781 460.088 37.9813 459.109 39.9543C458.192 41.8657 457.458 44.0237 456.907 46.4284C456.357 48.833 455.929 51.2377 455.623 53.6424C455.378 56.047 455.195 58.3284 455.072 60.4864C455.011 62.5827 454.98 64.3092 454.98 65.6656C454.675 76.5791 454.43 87.4309 454.246 98.221C454.063 108.949 453.818 119.801 453.512 130.776L406.72 132.811C407.943 111.046 409.105 89.4039 410.206 67.8853C411.368 46.3667 412.286 24.7248 412.959 2.95958L456.265 0.739895L455.898 15.5378C457.611 13.4414 459.446 11.4684 461.403 9.61863C463.421 7.76889 465.562 6.19662 467.826 4.9018C470.089 3.54533 472.474 2.49714 474.982 1.75725C477.551 0.955697 480.242 0.554921 483.056 0.554921C488.255 0.554921 492.812 1.41813 496.727 3.14455C500.642 4.87097 504.006 7.21397 506.819 10.1736C509.633 13.1331 511.988 16.6476 513.884 20.717C515.78 24.7248 517.31 29.01 518.472 33.5727C519.634 38.1354 520.521 42.9139 521.132 47.9082C521.744 52.8408 522.142 57.7118 522.325 62.5211C522.57 67.3304 522.692 71.9856 522.692 76.4866C522.692 80.9876 522.692 85.0879 522.692 88.7873Z" fill="#FF7043"/>
<path d="M623.646 88.2324C623.646 96.6795 622.178 103.986 619.242 110.152C616.367 116.256 612.391 121.312 607.314 125.32C602.299 129.266 596.396 132.194 589.606 134.106C582.878 135.956 575.63 136.88 567.862 136.88C564.864 136.88 561.561 136.48 557.953 135.678C554.405 134.877 550.796 133.89 547.126 132.719C543.456 131.485 539.908 130.191 536.483 128.834C533.119 127.416 530.122 126.09 527.491 124.857L531.528 88.6024C536.728 91.7469 542.477 94.1516 548.778 95.8163C555.139 97.4194 561.378 98.221 567.495 98.221C568.657 98.221 570.064 98.1902 571.715 98.1285C573.367 98.0052 574.926 97.7277 576.394 97.2961C577.924 96.8029 579.208 96.0938 580.248 95.1689C581.288 94.2441 581.808 92.9184 581.808 91.192C581.808 90.0205 581.441 89.034 580.707 88.2324C579.973 87.3692 579.025 86.691 577.862 86.1977C576.7 85.6428 575.385 85.242 573.917 84.9954C572.449 84.6871 571.012 84.4713 569.605 84.348C568.198 84.2247 566.883 84.163 565.66 84.163C564.436 84.163 563.458 84.163 562.724 84.163C557.463 84.163 552.662 83.3306 548.319 81.6659C544.037 80.0011 540.336 77.6581 537.217 74.6369C534.159 71.554 531.773 67.8545 530.06 63.5384C528.348 59.1607 527.491 54.3206 527.491 49.018C527.491 41.7424 528.929 35.2375 531.804 29.5033C534.74 23.7075 538.624 18.8057 543.456 14.7979C548.349 10.7285 553.946 7.61475 560.246 5.45672C566.547 3.2987 573.061 2.21968 579.789 2.21968C582.786 2.21968 585.875 2.343 589.056 2.58963C592.237 2.77461 595.387 3.14455 598.506 3.69947C601.687 4.25439 604.776 4.96346 607.773 5.82667C610.77 6.68988 613.614 7.76889 616.306 9.06371L612.819 46.6134C608.66 45.1952 604.286 44.0237 599.699 43.0989C595.173 42.1123 590.738 41.6191 586.395 41.6191C585.6 41.6191 584.56 41.6499 583.276 41.7116C582.052 41.7116 580.737 41.804 579.33 41.989C577.985 42.1123 576.608 42.3281 575.202 42.6364C573.795 42.9447 572.541 43.3763 571.44 43.9312C570.339 44.4245 569.452 45.1027 568.779 45.9659C568.106 46.8292 567.8 47.8465 567.862 49.018C567.923 50.3745 568.412 51.4227 569.33 52.1626C570.308 52.9025 571.532 53.4574 573 53.8273C574.529 54.1356 576.18 54.2898 577.954 54.2898C579.789 54.2898 581.594 54.2589 583.367 54.1973C585.141 54.074 586.793 53.9815 588.322 53.9198C589.851 53.7965 591.105 53.7657 592.084 53.8273C596.977 54.1356 601.381 55.1838 605.296 56.9719C609.21 58.76 612.513 61.1338 615.205 64.0934C617.957 67.0529 620.037 70.5983 621.444 74.7293C622.912 78.7988 623.646 83.2998 623.646 88.2324Z" fill="#FF7043"/>
<path d="M751.115 66.7755C751.115 76.1475 749.372 85.0879 745.885 93.5967C742.46 102.105 737.292 109.566 730.38 115.978L743.041 131.146L709.461 152.973L701.57 131.146C699.246 131.64 696.891 132.01 694.505 132.256C692.181 132.503 689.826 132.626 687.441 132.626C681.569 132.626 675.941 131.886 670.558 130.406C665.176 128.927 660.129 126.861 655.42 124.21C650.71 121.497 646.428 118.229 642.575 114.406C638.721 110.583 635.388 106.329 632.574 101.643C629.821 96.957 627.68 91.9011 626.151 86.4752C624.683 80.9876 623.949 75.2843 623.949 69.3651C623.949 63.5076 624.653 57.8351 626.06 52.3475C627.528 46.7983 629.577 41.5882 632.207 36.7173C634.898 31.8463 638.109 27.4069 641.841 23.3992C645.633 19.3297 649.853 15.8461 654.502 12.9482C659.151 9.98858 664.167 7.70723 669.549 6.10413C674.932 4.50102 680.59 3.69947 686.523 3.69947C696.004 3.69947 704.69 5.14843 712.58 8.04635C720.532 10.9443 727.352 15.1062 733.04 20.5321C738.729 25.958 743.164 32.5862 746.344 40.4167C749.525 48.1856 751.115 56.9719 751.115 66.7755ZM706.525 69.3651C706.525 66.5289 706.096 63.7851 705.24 61.1338C704.445 58.4208 703.252 56.047 701.662 54.0123C700.072 51.9159 698.084 50.2512 695.698 49.018C693.313 47.7849 690.56 47.1683 687.441 47.1683C684.382 47.1683 681.63 47.7232 679.183 48.833C676.736 49.8812 674.626 51.361 672.852 53.2724C671.14 55.1838 669.794 57.4343 668.815 60.0239C667.898 62.6136 667.439 65.419 667.439 68.4402C667.439 71.2765 667.837 74.0819 668.632 76.8565C669.488 79.5695 670.711 82.0358 672.302 84.2555C673.892 86.4135 675.88 88.1708 678.266 89.5272C680.651 90.8837 683.404 91.562 686.523 91.562C689.52 91.562 692.242 90.9762 694.689 89.8047C697.197 88.5715 699.307 86.9376 701.02 84.9029C702.793 82.8682 704.139 80.5252 705.057 77.8739C706.035 75.161 706.525 72.3247 706.525 69.3651Z" fill="#FF7043"/>
<path d="M865.281 5.36424C862.528 27.0678 860.173 48.6789 858.216 70.1975C856.259 91.6544 854.393 113.266 852.619 135.031L815.002 137.805L816.653 123.562C815.43 124.981 813.992 126.214 812.341 127.262C810.751 128.31 809.038 129.173 807.203 129.851C805.368 130.468 803.472 130.931 801.514 131.239C799.557 131.485 797.691 131.578 795.918 131.516C791.758 131.455 787.844 130.653 784.174 129.112C780.504 127.508 777.139 125.412 774.081 122.822C771.023 120.171 768.27 117.119 765.823 113.666C763.377 110.152 761.297 106.483 759.585 102.66C757.933 98.7759 756.648 94.8298 755.731 90.8221C754.875 86.8143 754.446 82.9298 754.446 79.1687C754.446 73.6195 754.538 67.8853 754.722 61.9662C754.966 55.9854 755.364 50.0045 755.914 44.0237C756.465 38.0429 757.168 32.1238 758.025 26.2663C758.942 20.4088 760.074 14.7979 761.42 9.43366C768.882 9.8036 776.375 10.1427 783.898 10.451C791.422 10.7593 798.915 10.8518 806.377 10.7285C804.97 16.0927 803.563 21.4878 802.157 26.9137C800.811 32.2779 799.588 37.7038 798.487 43.1913C797.386 48.6172 796.499 54.074 795.826 59.5615C795.153 65.0491 794.817 70.5983 794.817 76.2091C794.817 77.504 794.878 79.3537 795 81.7584C795.122 84.163 795.428 86.5368 795.918 88.8798C796.468 91.2228 797.263 93.2884 798.303 95.0764C799.404 96.8029 800.933 97.6661 802.891 97.6661C805.215 97.6661 807.295 96.6795 809.13 94.7065C810.965 92.6718 812.586 89.9588 813.992 86.5677C815.399 83.1765 816.592 79.2612 817.571 74.8218C818.611 70.3825 819.467 65.7581 820.14 60.9488C820.874 56.0778 821.455 51.176 821.883 46.2434C822.311 41.3108 822.617 36.6864 822.8 32.3704C823.045 27.9927 823.198 24.0774 823.259 20.6246C823.382 17.1717 823.443 14.4896 823.443 12.5782C823.443 11.345 823.412 10.1427 823.351 8.97122C823.29 7.79972 823.198 6.59739 823.076 5.36424C827.052 5.48755 830.997 5.58004 834.912 5.6417C838.826 5.70335 842.771 5.73418 846.747 5.73418C849.806 5.73418 852.864 5.73418 855.922 5.73418C859.042 5.67253 862.161 5.54921 865.281 5.36424Z" fill="#FF7043"/>
<path d="M981.557 127.632L936.049 133.551L930.544 112.649H909.624L905.037 133.551L858.244 128.927L894.761 5.73418L945.774 3.14455L981.557 127.632ZM927.241 84.348L920.268 52.1626L913.478 84.348H927.241Z" fill="#FF7043"/>
<path d="M1089.21 46.4284C1089.21 51.2377 1088.78 55.6154 1087.92 59.5615C1087.13 63.446 1085.84 67.0221 1084.07 70.29C1082.3 73.5579 1080 76.5791 1077.19 79.3537C1074.38 82.1283 1070.98 84.7796 1067 87.3076L1088.84 126.522L1047.55 134.661L1033.42 95.2614L1022.05 95.6314L1020.4 134.106H980.943C981.249 120.048 981.524 106.052 981.769 92.1169C982.074 78.1822 982.411 64.1859 982.778 50.1279C982.9 43.0372 983.022 36.0082 983.145 29.0409C983.267 22.0735 983.512 15.0445 983.879 7.95387C988.16 6.35076 992.381 5.02512 996.54 3.97693C1000.7 2.92875 1004.86 2.1272 1009.02 1.57228C1013.24 0.955697 1017.49 0.554921 1021.77 0.369948C1026.11 0.123316 1030.55 0 1035.08 0C1042.05 0 1048.78 0.986526 1055.26 2.95958C1061.81 4.87097 1067.59 7.76889 1072.6 11.6533C1077.62 15.5378 1081.62 20.3779 1084.62 26.1738C1087.68 31.9696 1089.21 38.7211 1089.21 46.4284ZM1048.1 49.388C1048.1 46.7983 1047.74 44.4245 1047 42.2665C1046.33 40.1085 1045.29 38.2587 1043.88 36.7173C1042.54 35.1142 1040.83 33.881 1038.75 33.0178C1036.73 32.0929 1034.34 31.6305 1031.59 31.6305C1030.37 31.6305 1029.17 31.723 1028.01 31.908C1026.85 32.0313 1025.72 32.2471 1024.62 32.5554L1023.15 66.9605H1025.35C1027.98 66.9605 1030.64 66.6213 1033.33 65.9431C1036.08 65.2649 1038.53 64.2167 1040.67 62.7985C1042.87 61.3804 1044.65 59.5615 1045.99 57.3418C1047.4 55.1221 1048.1 52.4709 1048.1 49.388Z" fill="#FF7043"/>
<path d="M1195.3 60.8563C1195.3 66.2206 1194.93 71.5848 1194.2 76.949C1183.74 77.6273 1173.34 78.7371 1163 80.2786C1152.67 81.7583 1142.33 83.2381 1131.99 84.7179C1133.58 89.1573 1136.06 92.7026 1139.42 95.3539C1142.85 98.0052 1146.92 99.3308 1151.63 99.3308C1154.07 99.3308 1156.73 98.8684 1159.61 97.9435C1162.54 97.0187 1165.45 95.878 1168.33 94.5215C1171.2 93.1034 1173.95 91.5928 1176.58 89.9897C1179.21 88.3866 1181.48 86.9376 1183.37 85.6428L1178.97 127.632C1176.58 129.482 1173.98 131.054 1171.17 132.349C1168.42 133.643 1165.54 134.692 1162.54 135.493C1159.55 136.295 1156.52 136.88 1153.46 137.25C1150.4 137.62 1147.41 137.805 1144.47 137.805C1138.41 137.805 1132.88 136.973 1127.86 135.308C1122.85 133.643 1118.29 131.331 1114.19 128.372C1110.16 125.35 1106.61 121.805 1103.55 117.736C1100.49 113.666 1097.95 109.227 1095.93 104.418C1093.92 99.6083 1092.39 94.5215 1091.35 89.1573C1090.31 83.7931 1089.79 78.3672 1089.79 72.8796C1089.79 67.1454 1090.31 61.4113 1091.35 55.6771C1092.39 49.9429 1093.95 44.4245 1096.03 39.1219C1098.17 33.8193 1100.83 28.9175 1104.01 24.4165C1107.25 19.8538 1111.01 15.8769 1115.29 12.4857C1119.58 9.09454 1124.41 6.44325 1129.79 4.53185C1135.23 2.62046 1141.23 1.66476 1147.77 1.66476C1153.22 1.66476 1158.17 2.43549 1162.64 3.97693C1167.16 5.45672 1171.17 7.55309 1174.66 10.266C1178.2 12.9173 1181.26 16.0927 1183.83 19.7922C1186.46 23.4917 1188.6 27.5611 1190.25 32.0004C1191.97 36.3782 1193.22 41.0333 1194.02 45.9659C1194.87 50.8369 1195.3 55.8004 1195.3 60.8563ZM1158.6 56.047C1158.6 54.3206 1158.42 52.5633 1158.05 50.7753C1157.68 48.9255 1157.07 47.2608 1156.21 45.781C1155.42 44.3012 1154.35 43.0989 1153 42.174C1151.66 41.1875 1149.98 40.6942 1147.96 40.6942C1145.51 40.6942 1143.34 41.3724 1141.44 42.7289C1139.61 44.0237 1138.02 45.6885 1136.67 47.7232C1135.33 49.6962 1134.22 51.8543 1133.37 54.1973C1132.51 56.5403 1131.87 58.6983 1131.44 60.6713L1158.6 58.0817V56.047Z" fill="#FF7043"/>
</svg>
