<svg width="1221" height="154" viewBox="0 0 1221 154" fill="none" xmlns="http://www.w3.org/2000/svg">
<path d="M94.0427 7.00838L88.9198 45.9234C87.1511 45.4315 85.3825 45.0934 83.6139 44.909C81.8452 44.7246 80.0766 44.6323 78.3079 44.6323C73.7949 44.6323 69.4952 45.2471 65.4091 46.4766C61.3229 47.6447 57.6942 49.4583 54.5228 51.9174C51.4125 54.3764 48.912 57.4503 47.0214 61.1389C45.1917 64.8275 44.2769 69.1617 44.2769 74.1413C44.2769 77.3381 44.7648 80.1046 45.7406 82.4407C46.7774 84.7769 48.2106 86.7134 50.0402 88.2503C51.8699 89.7872 54.0349 90.9246 56.5354 91.6623C59.0359 92.4 61.7803 92.7689 64.7687 92.7689C67.0253 92.7689 69.3733 92.523 71.8128 92.0312C74.2523 91.5393 76.6613 90.8938 79.0398 90.0946C81.4183 89.2954 83.7358 88.3733 85.9924 87.3282C88.2489 86.283 90.3225 85.2072 92.2131 84.1006L88.5538 127.442C86.1753 128.671 83.5834 129.778 80.7779 130.762C78.0335 131.684 75.1976 132.514 72.2702 133.251C69.3428 133.928 66.4154 134.45 63.488 134.819C60.5606 135.188 57.7552 135.372 55.0717 135.372C47.3263 135.372 40.0993 133.928 33.3906 131.038C26.682 128.149 20.8577 124.184 15.9177 119.143C10.9777 114.101 7.07455 108.169 4.20814 101.345C1.40271 94.4595 0 87.0515 0 79.121C0 68.6084 1.49419 58.7106 4.48258 49.4275C7.47097 40.083 11.8621 31.9066 17.6559 24.8982C23.4497 17.8898 30.6157 12.3569 39.154 8.2994C47.7532 4.24192 57.6332 2.21317 68.7939 2.21317C73.002 2.21317 77.3016 2.5513 81.6927 3.22755C86.1448 3.90379 90.2615 5.16407 94.0427 7.00838Z" fill="#FF7043"/>
<path d="M208.394 132.975L162.654 135.188L162.288 96.2731H141.247L139.966 136.663H98.9827L102.459 7.00838L146.004 9.03713L143.26 75.2479H163.568L163.751 5.9018L205.467 7.00838L208.394 132.975Z" fill="#FF7043"/>
<path d="M332.443 128.733L287.068 134.635L281.579 113.794H260.722L256.147 134.635L209.492 130.024L245.902 7.19281L296.765 4.61078L332.443 128.733ZM278.286 85.5761L271.333 53.485L264.564 85.5761H278.286Z" fill="#FF7043"/>
<path d="M382.117 6.82395L375.713 132.422L337.108 134.45L333.449 9.40599L382.117 6.82395Z" fill="#FF7043"/>
<path d="M503.147 90.0024C503.147 96.9493 503.055 103.835 502.872 110.659C502.75 117.421 502.537 124.245 502.232 131.131L449.539 130.208C451.368 119.327 452.954 108.476 454.296 97.6563C455.638 86.7749 456.308 75.8012 456.308 64.7353C456.308 63.9361 456.278 62.6451 456.217 60.8623C456.156 59.0794 456.034 57.0814 455.851 54.8683C455.668 52.5936 455.394 50.2882 455.028 47.9521C454.723 45.5545 454.265 43.3721 453.655 41.4048C453.107 39.4375 452.405 37.8391 451.551 36.6096C450.759 35.3186 449.783 34.6731 448.624 34.6731C446.55 34.6731 444.782 35.2878 443.318 36.5174C441.915 37.7469 440.726 39.3453 439.75 41.3126C438.835 43.2184 438.104 45.3701 437.555 47.7677C437.006 50.1653 436.579 52.5629 436.274 54.9605C436.03 57.3581 435.847 59.6327 435.725 61.7844C435.664 63.8747 435.634 65.596 435.634 66.9485C435.329 77.8299 435.085 88.6499 434.902 99.4084C434.719 110.105 434.475 120.925 434.17 131.868L387.514 133.897C388.734 112.196 389.893 90.6172 390.991 69.1617C392.15 47.7062 393.064 26.1277 393.735 4.42635L436.914 2.21317L436.548 16.9677C438.256 14.8774 440.086 12.9102 442.037 11.0659C444.05 9.22156 446.184 7.65389 448.441 6.36287C450.698 5.01038 453.076 3.96527 455.577 3.22755C458.138 2.42834 460.821 2.02874 463.627 2.02874C468.811 2.02874 473.354 2.88942 477.258 4.61078C481.161 6.33214 484.515 8.66826 487.321 11.6192C490.126 14.5701 492.474 18.0743 494.365 22.1317C496.255 26.1277 497.78 30.4004 498.939 34.9497C500.097 39.499 500.982 44.2635 501.592 49.2431C502.201 54.1613 502.598 59.018 502.781 63.8132C503.025 68.6084 503.147 73.2499 503.147 77.7377C503.147 82.2256 503.147 86.3138 503.147 90.0024Z" fill="#FF7043"/>
<path d="M642.107 87.6048C642.107 96.0272 640.643 103.404 637.716 109.737C634.849 116.007 630.885 121.233 625.823 125.413C620.822 129.594 614.937 132.729 608.167 134.819C601.459 136.909 594.232 137.954 586.486 137.954C583.498 137.954 580.204 137.555 576.606 136.756C573.069 135.956 569.471 134.973 565.811 133.805C562.152 132.575 558.615 131.284 555.2 129.932C551.845 128.518 548.857 127.196 546.234 125.966L550.26 87.9737C555.444 91.109 561.176 93.5066 567.458 95.1665C573.801 96.7649 580.021 97.5641 586.12 97.5641C587.279 97.5641 588.682 97.5333 590.328 97.4719C591.975 97.3489 593.53 97.0723 594.994 96.6419C596.519 96.1501 597.799 95.4431 598.836 94.521C599.873 93.5988 600.391 92.2771 600.391 90.5557C600.391 89.3876 600.025 88.404 599.294 87.6048C598.562 86.7441 597.616 86.0679 596.458 85.5761C595.299 85.0228 593.988 84.6232 592.524 84.3773C591.06 84.0699 589.627 83.8547 588.224 83.7317C586.822 83.6088 585.51 83.5473 584.291 83.5473C583.071 83.5473 582.095 83.5473 581.363 83.5473C576.118 83.5473 571.331 82.6252 567.001 80.7808C562.732 78.9365 559.042 76.3852 555.931 73.127C552.882 69.8072 550.503 65.9034 548.796 61.4156C547.088 56.8663 546.234 51.9481 546.234 46.6611C546.234 39.4068 547.668 32.921 550.534 27.2036C553.461 21.4247 557.334 16.5373 562.152 12.5413C567.031 8.48383 572.612 5.37924 578.893 3.22755C585.175 1.07585 591.67 0 598.379 0C601.367 0 604.447 0.122954 607.618 0.368862C610.79 0.553294 613.93 0.922156 617.041 1.47545C620.212 2.02874 623.292 2.73573 626.281 3.59641C629.269 4.45709 632.105 5.53293 634.788 6.82395L631.312 44.2635C627.165 42.8495 622.804 41.6814 618.23 40.7593C613.717 39.7757 609.295 39.2838 604.965 39.2838C604.173 39.2838 603.136 39.3146 601.855 39.376C600.635 39.376 599.324 39.4683 597.921 39.6527C596.58 39.7757 595.207 39.9908 593.805 40.2982C592.402 40.6056 591.152 41.0359 590.054 41.5892C588.956 42.081 588.072 42.7573 587.401 43.618C586.73 44.4786 586.425 45.493 586.486 46.6611C586.547 48.0136 587.035 49.1202 587.95 49.9808C588.926 50.78 590.145 51.4256 591.609 51.9174C593.134 52.3477 594.78 52.6551 596.549 52.8395C598.379 53.024 600.178 53.1469 601.946 53.2084C603.715 53.2084 605.362 53.2084 606.886 53.2084C608.411 53.1469 609.661 53.1776 610.637 53.3006C615.516 53.608 619.907 54.6531 623.81 56.4359C627.714 58.2188 631.007 60.5856 633.69 63.5365C636.435 66.4874 638.508 70.0224 639.911 74.1413C641.375 78.1988 642.107 82.6866 642.107 87.6048Z" fill="#FF7043"/>
<path d="M770.912 68.0551C770.912 77.3996 769.174 86.3138 765.698 94.7976C762.283 103.281 757.129 110.72 750.238 117.114L762.862 132.237L729.38 154L721.512 132.237C719.195 132.729 716.847 133.098 714.468 133.344C712.151 133.59 709.803 133.713 707.424 133.713C701.57 133.713 695.959 132.975 690.592 131.499C685.225 130.024 680.193 127.964 675.497 125.321C670.801 122.616 666.532 119.358 662.69 115.546C658.848 111.735 655.524 107.493 652.719 102.82C649.974 98.1481 647.84 93.107 646.315 87.697C644.851 82.2256 644.119 76.5389 644.119 70.6371C644.119 64.7968 644.821 59.1409 646.223 53.6695C647.687 48.1365 649.73 42.9417 652.353 38.085C655.036 33.2283 658.238 28.802 661.958 24.806C665.739 20.7485 669.948 17.2751 674.583 14.3856C679.218 11.4347 684.219 9.16008 689.586 7.56168C694.952 5.96327 700.594 5.16407 706.51 5.16407C715.963 5.16407 724.623 6.60878 732.49 9.4982C740.419 12.3876 747.219 16.5373 752.891 21.9473C758.562 27.3573 762.984 33.9661 766.155 41.7737C769.327 49.5198 770.912 58.2802 770.912 68.0551ZM726.452 70.6371C726.452 67.8092 726.026 65.0735 725.172 62.4299C724.379 59.725 723.19 57.3581 721.604 55.3293C720.018 53.2391 718.036 51.5792 715.658 50.3497C713.279 49.1202 710.535 48.5054 707.424 48.5054C704.375 48.5054 701.631 49.0587 699.191 50.1653C696.752 51.2104 694.647 52.6858 692.879 54.5916C691.171 56.4974 689.829 58.7413 688.854 61.3234C687.939 63.9054 687.481 66.7026 687.481 69.715C687.481 72.5429 687.878 75.3401 688.671 78.1066C689.525 80.8116 690.744 83.2707 692.33 85.4838C693.916 87.6355 695.898 89.3876 698.276 90.7401C700.655 92.0926 703.399 92.7689 706.51 92.7689C709.498 92.7689 712.212 92.1848 714.651 91.0168C717.152 89.7872 719.256 88.1581 720.964 86.1293C722.732 84.1006 724.074 81.7645 724.989 79.121C725.965 76.416 726.452 73.588 726.452 70.6371Z" fill="#FF7043"/>
<path d="M886.545 6.82395C883.8 28.4639 881.452 50.0116 879.501 71.4671C877.549 92.8611 875.689 114.409 873.92 136.11L836.413 138.877L838.06 124.675C836.84 126.089 835.407 127.319 833.76 128.364C832.174 129.409 830.467 130.27 828.637 130.946C826.807 131.561 824.917 132.022 822.965 132.329C821.014 132.575 819.153 132.667 817.385 132.606C813.238 132.545 809.334 131.745 805.675 130.208C802.016 128.61 798.662 126.52 795.612 123.938C792.563 121.294 789.818 118.251 787.379 114.808C784.94 111.304 782.866 107.646 781.158 103.835C779.512 99.9617 778.231 96.0272 777.316 92.0312C776.462 88.0351 776.035 84.1621 776.035 80.412C776.035 74.8791 776.127 69.1617 776.31 63.2599C776.554 57.2966 776.95 51.3333 777.499 45.3701C778.048 39.4068 778.749 33.505 779.603 27.6647C780.518 21.8244 781.646 16.2299 782.988 10.8814C790.428 11.2503 797.899 11.5884 805.401 11.8958C812.902 12.2032 820.373 12.2954 827.814 12.1725C826.411 17.521 825.008 22.9002 823.606 28.3102C822.264 33.6587 821.044 39.0687 819.946 44.5401C818.849 49.9501 817.964 55.3908 817.293 60.8623C816.622 66.3337 816.287 71.8667 816.287 77.4611C816.287 78.7521 816.348 80.5964 816.47 82.994C816.592 85.3916 816.897 87.7585 817.385 90.0946C817.934 92.4307 818.727 94.4902 819.763 96.2731C820.861 97.9944 822.386 98.8551 824.337 98.8551C826.655 98.8551 828.729 97.8715 830.558 95.9042C832.388 93.8755 834.004 91.1705 835.407 87.7892C836.809 84.408 837.999 80.5042 838.974 76.0779C840.011 71.6515 840.865 67.0407 841.536 62.2455C842.268 57.3888 842.847 52.5014 843.274 47.5832C843.701 42.6651 844.006 38.0543 844.189 33.7509C844.433 29.386 844.585 25.4822 844.646 22.0395C844.768 18.5968 844.829 15.9226 844.829 14.0168C844.829 12.7872 844.799 11.5884 844.738 10.4204C844.677 9.2523 844.585 8.05349 844.463 6.82395C848.427 6.94691 852.361 7.03912 856.264 7.1006C860.168 7.16208 864.101 7.19281 868.065 7.19281C871.115 7.19281 874.164 7.19281 877.214 7.19281C880.324 7.13134 883.434 7.00838 886.545 6.82395Z" fill="#FF7043"/>
<path d="M1004.28 128.733L958.906 134.635L953.417 113.794H932.56L927.986 134.635L881.33 130.024L917.74 7.19281L968.603 4.61078L1004.28 128.733ZM950.124 85.5761L943.172 53.485L936.402 85.5761H950.124Z" fill="#FF7043"/>
<path d="M1113.42 47.7677C1113.42 52.5629 1112.99 56.9277 1112.14 60.8623C1111.34 64.7353 1110.06 68.301 1108.3 71.5593C1106.53 74.8176 1104.24 77.8299 1101.43 80.5964C1098.63 83.3629 1095.24 86.0064 1091.28 88.527L1113.05 127.626L1071.89 135.741L1057.8 96.4575L1046.45 96.8263L1044.81 135.188H1005.47C1005.78 121.171 1006.05 107.216 1006.29 93.3222C1006.6 79.4284 1006.93 65.4731 1007.3 51.4563C1007.42 44.3864 1007.54 37.378 1007.67 30.4311C1007.79 23.4842 1008.03 16.4758 1008.4 9.40599C1012.67 7.80759 1016.87 6.48583 1021.02 5.44072C1025.17 4.39561 1029.32 3.59641 1033.46 3.04311C1037.67 2.42834 1041.91 2.02874 1046.18 1.84431C1050.51 1.5984 1054.93 1.47545 1059.44 1.47545C1066.4 1.47545 1073.11 2.45908 1079.57 4.42635C1086.1 6.33214 1091.86 9.22156 1096.86 13.0946C1101.86 16.9677 1105.86 21.7936 1108.84 27.5725C1111.89 33.3513 1113.42 40.083 1113.42 47.7677ZM1072.43 50.7186C1072.43 48.1365 1072.07 45.7697 1071.34 43.618C1070.67 41.4663 1069.63 39.622 1068.23 38.085C1066.88 36.4866 1065.18 35.2571 1063.1 34.3964C1061.09 33.4743 1058.71 33.0132 1055.97 33.0132C1054.75 33.0132 1053.56 33.1054 1052.4 33.2898C1051.24 33.4128 1050.11 33.6279 1049.02 33.9353L1047.55 68.2395H1049.75C1052.37 68.2395 1055.02 67.9014 1057.71 67.2252C1060.45 66.5489 1062.89 65.5038 1065.02 64.0898C1067.22 62.6758 1068.99 60.8623 1070.33 58.6491C1071.73 56.4359 1072.43 53.7924 1072.43 50.7186Z" fill="#FF7043"/>
<path d="M1221 62.1533C1221 67.5018 1220.63 72.8503 1219.9 78.1988C1209.47 78.8751 1199.11 79.9816 1188.8 81.5186C1178.49 82.994 1168.18 84.4695 1157.88 85.9449C1159.46 90.3713 1161.93 93.9062 1165.29 96.5497C1168.7 99.1932 1172.76 100.515 1177.46 100.515C1179.89 100.515 1182.55 100.054 1185.41 99.1317C1188.34 98.2096 1191.24 97.0723 1194.1 95.7198C1196.97 94.3058 1199.72 92.7996 1202.34 91.2012C1204.96 89.6028 1207.22 88.1581 1209.11 86.8671L1204.72 128.733C1202.34 130.577 1199.75 132.145 1196.94 133.436C1194.2 134.727 1191.33 135.772 1188.34 136.571C1185.35 137.37 1182.33 137.954 1179.28 138.323C1176.24 138.692 1173.25 138.877 1170.32 138.877C1164.28 138.877 1158.76 138.047 1153.76 136.387C1148.76 134.727 1144.22 132.422 1140.13 129.471C1136.11 126.458 1132.57 122.923 1129.52 118.866C1126.47 114.808 1123.94 110.382 1121.93 105.587C1119.91 100.792 1118.39 95.7198 1117.35 90.3713C1116.32 85.0228 1115.8 79.6128 1115.8 74.1413C1115.8 68.424 1116.32 62.7066 1117.35 56.9892C1118.39 51.2719 1119.94 45.7697 1122.02 40.4826C1124.15 35.1956 1126.8 30.3082 1129.98 25.8204C1133.21 21.2711 1136.96 17.3058 1141.23 13.9246C1145.5 10.5433 1150.32 7.8998 1155.68 5.99401C1161.11 4.08822 1167.09 3.13533 1173.61 3.13533C1179.04 3.13533 1183.98 3.90379 1188.43 5.44072C1192.95 6.91617 1196.94 9.00639 1200.42 11.7114C1203.95 14.3549 1207 17.521 1209.56 21.2096C1212.19 24.8982 1214.32 28.9557 1215.97 33.382C1217.68 37.7469 1218.93 42.3884 1219.72 47.3066C1220.57 52.1633 1221 57.1122 1221 62.1533ZM1184.41 57.3581C1184.41 55.6367 1184.22 53.8846 1183.86 52.1018C1183.49 50.2575 1182.88 48.5976 1182.03 47.1222C1181.24 45.6467 1180.17 44.4479 1178.83 43.5257C1177.49 42.5421 1175.81 42.0503 1173.8 42.0503C1171.36 42.0503 1169.19 42.7265 1167.3 44.079C1165.47 45.3701 1163.89 47.0299 1162.54 49.0587C1161.2 51.0259 1160.1 53.1776 1159.25 55.5138C1158.4 57.8499 1157.76 60.0016 1157.33 61.9689L1184.41 59.3868V57.3581Z" fill="#FF7043"/>
</svg>
